#N canvas 388 157 1178 675 10;
#X obj 321 446 cnv 15 100 40 empty empty empty 20 12 0 14 -4034 -66577
0;
#X msg 335 537 disconnect;
#X floatatom 388 492 5 0 0 0 - - -;
#X obj 392 226 pack f;
#X obj 406 300 pack f;
#X obj 486 277 pack f;
#X obj 624 266 pack f;
#X obj 316 576 mrpeach/udpsend;
#X obj 324 458 mrpeach/packOSC;
#X obj 10 571 print;
#X obj 10 509 mrpeach/udpreceive 10000;
#X obj 10 540 mrpeach/unpackOSC;
#X obj 221 3 cnv 15 140 200 empty empty Mode 20 12 0 14 -260097 -66577
0;
#X obj 395 3 cnv 15 140 180 empty empty RGB 20 12 0 14 -260097 -66577
0;
#X obj 420 44 vsl 15 128 0 1 0 0 empty empty empty 0 -9 0 10 -258113
-1 -1 12700 1;
#X obj 455 44 vsl 15 128 0 1 0 0 empty empty empty 0 -9 0 10 -4034
-1 -1 0 1;
#X obj 493 44 vsl 15 128 0 1 0 0 empty empty empty 0 -9 0 10 -4160
-1 -1 8600 1;
#X obj 569 4 cnv 15 140 180 empty empty Speed 20 12 0 14 -260097 -66577
0;
#X obj 624 43 vsl 15 128 0 1 0 0 empty empty empty 0 -9 0 10 -128992
-1 -1 0 1;
#X text 244 175 switch to mode 1;
#X text 244 69 Mode: Static Color;
#X text 244 123 Mode: ColorFade;
#X obj 739 4 cnv 15 140 180 empty empty Colorset 20 12 0 14 -260097
-66577 0;
#X obj 794 43 vsl 15 128 0 15 0 0 empty empty empty 0 -9 0 10 -128992
-1 -1 0 1;
#X obj 784 286 pack f;
#X obj 749 363 cnv 15 210 120 empty empty WOL 20 12 0 14 -260097 -66577
0;
#X msg 757 396 sendtyped /wol s 705681b1dbb3;
#X msg 757 426 sendtyped /wol s AFFEaffeAFFE;
#X obj 749 500 cnv 15 210 120 empty empty Pixel 20 12 0 14 -260097
-66577 0;
#X msg 757 533 sendtyped /pxl iiiii 0 0xff00ff 0xff00ff 0xffffff 0x000000
;
#X msg 757 571 sendtyped /pxl iiiii 0x100 0xff00ff 0xff00ff 0xffffff
0x000000;
#X msg 23 405 connect 1.2.3.4 10000;
#X msg 740 621 sendtyped /pxl iiiii 22 1.67119e+07 1.67119e+07 1.67119e+07
1.67119e+07;
#X msg 232 157 sendtyped /mod f 2;
#X msg 232 105 sendtyped /mod f 1;
#X msg 232 51 sendtyped /mod f 0;
#X msg 392 249 sendtyped /r f \$1;
#X msg 486 300 sendtyped /b f \$1;
#X msg 406 323 sendtyped /g f \$1;
#X msg 784 316 sendtyped /cos f \$1;
#X msg 624 296 sendtyped /spd f \$1;
#X msg 26 59 connect 192.168.111.22 10000;
#X connect 1 0 7 0;
#X connect 3 0 36 0;
#X connect 4 0 38 0;
#X connect 5 0 37 0;
#X connect 6 0 40 0;
#X connect 8 0 7 0;
#X connect 8 1 2 0;
#X connect 10 0 11 0;
#X connect 11 0 9 0;
#X connect 14 0 3 0;
#X connect 15 0 4 0;
#X connect 16 0 5 0;
#X connect 18 0 6 0;
#X connect 23 0 24 0;
#X connect 24 0 39 0;
#X connect 26 0 8 0;
#X connect 27 0 8 0;
#X connect 29 0 8 0;
#X connect 30 0 8 0;
#X connect 31 0 7 0;
#X connect 32 0 8 0;
#X connect 33 0 8 0;
#X connect 34 0 8 0;
#X connect 35 0 8 0;
#X connect 36 0 8 0;
#X connect 37 0 8 0;
#X connect 38 0 8 0;
#X connect 39 0 8 0;
#X connect 40 0 8 0;
#X connect 41 0 7 0;
